<svg width="668" height="668" viewBox="0 0 668 668" fill="none" xmlns="http://www.w3.org/2000/svg">
<path d="M507.887 578.41C465.163 530.693 403.09 500.667 334 500.667C264.911 500.667 202.831 530.693 160.107 578.41M334 634C168.315 634 34 499.687 34 334C34 168.315 168.315 34 334 34C499.687 34 634 168.315 634 334C634 499.687 499.687 634 334 634ZM334 400.667C278.77 400.667 234 355.897 234 300.667C234 245.438 278.77 200.667 334 200.667C389.23 200.667 434 245.438 434 300.667C434 355.897 389.23 400.667 334 400.667Z" stroke="#3388FF" stroke-width="66.6667" stroke-linecap="round" stroke-linejoin="round"/>
</svg>
