<svg width="800" height="800" viewBox="0 0 800 800" fill="none" xmlns="http://www.w3.org/2000/svg">
<path opacity="0.5" d="M83.3333 316.667H716.667V633.333H83.3333V316.667Z" fill="#CFD8DC"/>
<path opacity="0.5" d="M83.3333 633.333H716.667V700H83.3333V633.333Z" fill="#B0BEC5"/>
<path opacity="0.5" d="M450 400H650V700H450V400Z" fill="#455A64"/>
<path opacity="0.5" d="M150 400H383.333V583.333H150V400Z" fill="#E3F2FD"/>
<path opacity="0.5" d="M166.667 416.667H366.667V566.667H166.667V416.667Z" fill="#1E88E5"/>
<path opacity="0.5" d="M608.333 558.333C603.333 558.333 600 561.667 600 566.667V600C600 605 603.333 608.333 608.333 608.333C613.333 608.333 616.667 605 616.667 600V566.667C616.667 561.667 613.333 558.333 608.333 558.333Z" fill="#90A4AE"/>
<path opacity="0.5" d="M350 316.667C350 329.928 355.268 342.645 364.645 352.022C374.021 361.399 386.739 366.667 400 366.667C413.261 366.667 425.979 361.399 435.355 352.022C444.732 342.645 450 329.928 450 316.667C450 303.406 444.732 290.688 435.355 281.311C425.979 271.935 413.261 266.667 400 266.667C386.739 266.667 374.021 271.935 364.645 281.311C355.268 290.688 350 303.406 350 316.667Z" fill="#558B2F"/>
<path opacity="0.5" d="M550 316.667C550 329.928 555.268 342.645 564.645 352.022C574.021 361.399 586.739 366.667 600 366.667C613.261 366.667 625.979 361.399 635.355 352.022C644.732 342.645 650 329.928 650 316.667C650 303.406 644.732 290.688 635.355 281.311C625.979 271.935 613.261 266.667 600 266.667C586.739 266.667 574.021 271.935 564.645 281.311C555.268 290.688 550 303.406 550 316.667Z" fill="#558B2F"/>
<path opacity="0.5" d="M150 316.667C150 329.928 155.268 342.645 164.645 352.022C174.021 361.399 186.739 366.667 200 366.667C213.261 366.667 225.979 361.399 235.355 352.022C244.732 342.645 250 329.928 250 316.667C250 303.406 244.732 290.688 235.355 281.311C225.979 271.935 213.261 266.667 200 266.667C186.739 266.667 174.021 271.935 164.645 281.311C155.268 290.688 150 303.406 150 316.667Z" fill="#558B2F"/>
<path opacity="0.5" d="M666.667 100H133.333C115 100 100 115 100 133.333V183.333H700V133.333C700 115 685 100 666.667 100ZM350 183.333H450V316.667H350V183.333ZM616.667 183.333H533.333L550 316.667H650L616.667 183.333ZM183.333 183.333H266.667L250 316.667H150L183.333 183.333Z" fill="#7CB342"/>
<path opacity="0.5" d="M450 316.667C450 329.928 455.268 342.645 464.645 352.022C474.021 361.399 486.739 366.667 500 366.667C513.261 366.667 525.979 361.399 535.355 352.022C544.732 342.645 550 329.928 550 316.667C550 303.406 544.732 290.688 535.355 281.311C525.979 271.935 513.261 266.667 500 266.667C486.739 266.667 474.021 271.935 464.645 281.311C455.268 290.688 450 303.406 450 316.667Z" fill="#FFA000"/>
<path opacity="0.5" d="M750 316.667C750 345 728.333 366.667 700 366.667C671.667 366.667 650 345 650 316.667C650 288.333 671.667 266.667 700 266.667L750 316.667Z" fill="#FFA000"/>
<path opacity="0.5" d="M250 316.667C250 329.928 255.268 342.645 264.645 352.022C274.021 361.399 286.739 366.667 300 366.667C313.261 366.667 325.979 361.399 335.355 352.022C344.732 342.645 350 329.928 350 316.667C350 303.406 344.732 290.688 335.355 281.311C325.979 271.935 313.261 266.667 300 266.667C286.739 266.667 274.021 271.935 264.645 281.311C255.268 290.688 250 303.406 250 316.667Z" fill="#FFA000"/>
<path opacity="0.5" d="M50 316.667C50 345 71.6667 366.667 100 366.667C128.333 366.667 150 345 150 316.667C150 288.333 128.333 266.667 100 266.667L50 316.667Z" fill="#FFA000"/>
<path opacity="0.5" d="M533.333 183.333H450V316.667H550L533.333 183.333ZM700 183.333H616.667L650 316.667H750L700 183.333ZM266.667 183.333H350V316.667H250L266.667 183.333ZM100 183.333H183.333L150 316.667H50L100 183.333Z" fill="#FFC107"/>
</svg>
